<svg version="1.1" id="Layer_1" xmlns="http://www.w3.org/2000/svg" xmlns:xlink="http://www.w3.org/1999/xlink" x="0px" y="0px" viewBox="0 0 14 14" xml:space="preserve">
<title>AMP-Brand-Blue</title>
<g id="amp-logo-internal-site">
  <g id="AMP-Brand-Blue">
    <g id="Updated">
      <path id="Fill-7" d="M9.4,6.4l-2.9,4.8H5.9l0.5-3.2l-1.6,0c0,0,0,0,0,0c-0.1,0-0.3-0.1-0.3-0.3c0-0.1,0.1-0.2,0.1-0.2l2.9-4.8
        l0.5,0L7.5,5.9l1.6,0c0,0,0,0,0,0c0.1,0,0.3,0.1,0.3,0.3C9.5,6.3,9.4,6.3,9.4,6.4L9.4,6.4z M7,0.1C3.1,0.1,0,3.2,0,7
        s3.1,6.9,7,6.9c3.9,0,7-3.1,7-6.9S10.9,0.1,7,0.1L7,0.1z"></path>
    </g>
  </g>
</g>
</svg>
