<svg version="1.1" id="Layer_1" xmlns="http://www.w3.org/2000/svg" xmlns:xlink="http://www.w3.org/1999/xlink" x="0px" y="0px" viewBox="0 0 100 100" style="enable-background:new 0 0 100 100;" xml:space="preserve">
<g>
  <path d="M42.7,42.6c4-4,10.6-4,14.7,0c4,4,4,10.7,0,14.7s-10.6,4-14.7,0S38.6,46.7,42.7,42.6z M50,23.6C22.1,23.6,0,50,0,50
    s22.1,26.4,50,26.4c6,0,11.6-1.1,16.9-3.1L60,66.4C52.6,71,42.9,70,36.4,63.6C29,56,29,43.9,36.4,36.4c7.4-7.6,19.6-7.6,27.1,0
    c6.4,6.4,7.3,16.1,2.9,23.6l9.4,9.4C90.3,61.6,100,50,100,50S77.9,23.6,50,23.6z"></path>
</g>
</svg>
