<svg version="1.1" id="Layer_1" xmlns="http://www.w3.org/2000/svg" xmlns:xlink="http://www.w3.org/1999/xlink" x="0px" y="0px" viewBox="0 0 24 24" style="enable-background:new 0 0 24 24;" xml:space="preserve" class="ng-scope">
<style type="text/css">
    .st0{fill:none;}
</style>
<path d="M23,11h-5c-0.5,0-1,0.4-1,1v9c0,0.5,0.5,1,1,1h5c0.5,0,1-0.5,1-1v-9C24,11.4,23.5,11,23,11z M23,20h-5v-7h5V20z"></path>
<path d="M20,2H2C0.9,2,0,2.9,0,4v12c0,1.1,0.9,2,2,2h7v2H7v2h8v-2h-2v-2h2v-2H2V4h18v5h2V4C22,2.9,21.1,2,20,2z"></path>
<path d="M11,5.5c-2.4,0-4.4,2-4.4,4.4s2,4.4,4.4,4.4s4.4-2,4.4-4.4S13.4,5.5,11,5.5z M11.6,12.6v0.8h-1.2v-0.8C9.7,12.4,9,12,9,11.1
    h0.9c0,0.5,0.4,0.8,1.2,0.8c0.9,0,1.1-0.4,1.1-0.7c0-0.4-0.2-0.7-1.2-0.9C9.8,10,9.1,9.6,9.1,8.7c0-0.8,0.6-1.2,1.4-1.4V6.4h1.2v0.9
    c0.8,0.2,1.2,0.8,1.2,1.5H12C12,8.3,11.7,8,11,8s-1,0.3-1,0.7s0.3,0.6,1.2,0.8C12,9.7,13,10.1,13,11.2C13,12,12.4,12.4,11.6,12.6z"></path>
<path class="st0" d="M5.8,4.7h10.5v10.5H5.8V4.7z"></path>
</svg>
