<svg version="1.1" id="Layer_1" xmlns="http://www.w3.org/2000/svg" xmlns:xlink="http://www.w3.org/1999/xlink" x="0px" y="0px" viewBox="0 0 100 100" style="enable-background:new 0 0 100 100;" xml:space="preserve" fill="#000" class="ng-scope">
<path d="M93.2,23H6.8c-1,0-1.8,0.8-1.8,1.8v50.4c0,1,0.8,1.8,1.8,1.8h32.9c0.8,0,1.5-0.5,1.7-1.2l4.5-13.7c1.3-3.9,6.8-3.9,8.1,0
  l4.6,13.7c0.2,0.7,0.9,1.2,1.7,1.2h32.9c1,0,1.8-0.8,1.8-1.8V24.8C95,23.8,94.2,23,93.2,23z M27.5,59c-5,0-9-4-9-9s4-9,9-9s9,4,9,9
  S32.5,59,27.5,59z M72.5,59c-5,0-9-4-9-9s4-9,9-9s9,4,9,9S77.5,59,72.5,59z"></path>
</svg>
