<svg version="1.1" id="YouTube_Icon" xmlns="http://www.w3.org/2000/svg" xmlns:xlink="http://www.w3.org/1999/xlink" x="0px" y="0px" viewBox="0 0 50 50" style="enable-background:new 0 0 50 50;" xml:space="preserve" class="ng-scope">
<g id="Lozenge">
  <g>
    <path d="M49.5,15c0,0-0.5-3.4-2-5c-1.9-2-4-2-5-2.1C35.5,7.4,25,7.4,25,7.4h0c0,0-10.5,0-17.5,0.5C6.5,8,4.4,8,2.5,10
      c-1.5,1.5-2,5-2,5S0,19,0,23.1v3.8c0,4,0.5,8.1,0.5,8.1s0.5,3.4,2,5c1.9,2,4.4,1.9,5.5,2.1c4,0.4,17,0.5,17,0.5s10.5,0,17.5-0.5
      c1-0.1,3.1-0.1,5-2.1c1.5-1.5,2-5,2-5s0.5-4,0.5-8.1v-3.8C50,19,49.5,15,49.5,15z M19.8,31.5l0-14l13.5,7L19.8,31.5z"></path>
  </g>
</g>
</svg>
