<?xml version="1.0" standalone="no"?>
<!DOCTYPE svg PUBLIC "-//W3C//DTD SVG 20010904//EN"
 "http://www.w3.org/TR/2001/REC-SVG-20010904/DTD/svg10.dtd">
<svg version="1.0" xmlns="http://www.w3.org/2000/svg"
 width="500.000000pt" height="500.000000pt" viewBox="0 0 500.000000 500.000000"
 preserveAspectRatio="xMidYMid meet">
<metadata>
Created by potrace 1.11, written by Peter Selinger 2001-2013
</metadata>
<g transform="translate(0.000000,500.000000) scale(0.100000,-0.100000)"
fill="#000000" stroke="none">
<path d="M2328 4935 c-1 -1 -43 -6 -91 -9 -49 -4 -112 -11 -140 -17 -29 -5
-65 -12 -82 -15 -290 -49 -628 -188 -896 -367 -410 -272 -737 -676 -919 -1132
-50 -124 -111 -326 -125 -415 -3 -19 -8 -42 -10 -50 -2 -8 -7 -39 -10 -69 -4
-30 -8 -61 -10 -70 -15 -77 -22 -426 -11 -506 2 -16 7 -59 11 -95 64 -602 404
-1215 890 -1604 350 -281 715 -442 1180 -521 161 -27 547 -28 710 -1 651 105
1173 407 1576 911 122 152 265 396 346 590 61 147 132 407 149 550 4 28 8 53
10 56 2 3 6 50 10 104 6 88 9 101 30 118 50 39 48 132 -3 168 -17 12 -21 31
-27 119 -3 58 -8 116 -11 130 -2 14 -9 55 -15 92 -6 37 -25 127 -44 200 -147
583 -519 1100 -1031 1437 -233 153 -585 301 -828 347 -12 2 -33 6 -47 9 -14 2
-38 7 -55 9 -16 2 -48 7 -70 11 -22 3 -56 8 -75 11 -40 5 -406 14 -412 9z
m362 -100 c127 -10 333 -50 463 -90 798 -241 1408 -884 1612 -1695 13 -52 26
-112 29 -132 3 -21 9 -55 12 -75 3 -21 7 -49 9 -62 3 -14 7 -66 11 -117 6 -91
6 -94 -20 -124 -14 -18 -26 -35 -26 -39 0 -4 -37 -8 -83 -9 l-82 -2 -12 29
c-11 30 -69 74 -85 65 -4 -3 -8 -2 -9 3 0 4 -2 19 -4 33 -16 132 -16 180 0
186 22 9 45 56 45 93 0 37 -41 87 -77 94 -26 5 -31 14 -60 108 -31 101 -31
103 -13 128 23 32 26 47 17 94 -9 42 -37 65 -86 70 -24 3 -38 12 -50 33 -9 16
-33 57 -53 91 -35 60 -36 65 -24 96 19 46 10 88 -25 120 -25 23 -39 28 -71 25
-34 -2 -44 2 -65 27 -14 17 -48 53 -75 82 -41 43 -47 56 -39 71 22 42 -4 102
-54 126 -29 14 -42 15 -70 6 -39 -13 -34 -15 -137 62 -66 50 -76 61 -72 83 8
46 -24 88 -79 103 -29 8 -42 7 -71 -9 l-34 -18 -74 34 c-115 55 -121 59 -125
83 -12 81 -111 116 -170 60 -22 -21 -23 -21 -103 -4 -86 19 -111 24 -122 25
-4 1 -14 16 -23 35 -35 72 -135 81 -179 14 -14 -22 -20 -23 -123 -22 -132 2
-120 0 -126 24 -7 27 -71 53 -108 45 -29 -7 -79 -56 -79 -79 0 -8 -17 -16 -37
-19 -41 -6 -75 -13 -137 -27 -35 -8 -43 -6 -69 16 -41 35 -95 33 -136 -5 -20
-18 -31 -39 -31 -56 0 -21 -7 -29 -37 -41 -21 -9 -67 -29 -101 -45 -58 -26
-66 -28 -85 -14 -32 22 -99 19 -126 -6 -27 -25 -41 -61 -36 -88 3 -15 -12 -31
-63 -67 -37 -26 -77 -56 -90 -68 -19 -17 -26 -18 -42 -8 -28 17 -60 15 -98 -8
-39 -24 -55 -60 -46 -106 6 -31 1 -39 -65 -111 -68 -73 -73 -77 -118 -79 -39
-1 -52 -7 -75 -33 -31 -35 -37 -85 -14 -117 13 -17 13 -22 -2 -44 -9 -14 -34
-56 -57 -95 -37 -64 -43 -70 -75 -73 -75 -5 -113 -90 -71 -159 l20 -31 -33
-98 c-31 -92 -35 -98 -73 -116 -71 -33 -87 -118 -32 -169 23 -21 30 -35 26
-52 -3 -12 -9 -53 -12 -92 -4 -38 -8 -74 -8 -80 -1 -5 -14 -18 -29 -27 -43
-27 -61 -63 -55 -106 6 -34 14 -45 73 -91 6 -5 14 -46 17 -92 4 -46 9 -94 11
-105 3 -15 -3 -25 -20 -34 -72 -39 -42 -167 42 -182 14 -2 28 -28 54 -108 34
-100 35 -105 18 -122 -59 -59 -14 -168 72 -172 28 -1 35 -8 69 -71 20 -39 45
-81 53 -95 15 -22 15 -27 2 -44 -18 -25 -18 -69 1 -106 16 -32 72 -55 109 -46
19 5 33 -5 77 -56 30 -35 61 -70 70 -79 12 -12 15 -29 11 -67 -4 -47 -2 -54
26 -82 32 -31 84 -40 121 -21 13 7 27 1 60 -25 24 -18 63 -46 87 -61 39 -25
43 -31 42 -66 -1 -82 79 -131 151 -91 35 19 39 19 67 4 16 -9 59 -29 97 -45
60 -25 67 -31 67 -56 0 -64 84 -111 145 -81 17 8 35 21 40 28 8 11 29 10 117
-9 102 -20 108 -23 113 -49 9 -41 50 -68 100 -68 37 0 48 5 75 37 l33 37 101
-2 c97 -1 102 -3 120 -28 27 -37 76 -56 115 -44 35 10 70 46 71 72 0 18 14 24
70 33 19 3 61 12 92 19 55 13 58 12 77 -10 55 -63 162 -28 174 56 4 26 7 29
125 83 71 33 73 33 100 15 73 -48 171 10 160 95 -2 21 10 34 87 90 53 38 94
61 100 57 19 -16 70 -17 97 -3 44 21 62 57 55 106 -5 38 -3 47 26 78 18 19 48
53 66 75 25 28 43 39 65 40 61 3 71 5 89 19 11 7 25 31 32 52 11 32 11 43 -2
74 -14 37 -14 37 39 127 41 70 58 91 74 89 33 -2 80 22 95 49 18 35 15 89 -9
119 l-20 25 29 83 c15 45 28 90 29 99 0 11 11 20 28 24 46 12 71 35 82 74 12
46 0 84 -36 112 -15 12 -23 27 -20 37 6 18 19 133 20 174 1 15 7 27 14 27 28
0 70 30 82 60 l12 30 84 0 c66 0 84 -3 84 -14 0 -8 11 -28 25 -44 23 -28 25
-36 20 -99 -6 -82 -15 -162 -20 -183 -2 -8 -7 -35 -10 -60 -19 -137 -118 -449
-179 -565 -9 -16 -16 -33 -16 -37 0 -3 -29 -58 -64 -120 -253 -453 -645 -811
-1111 -1016 -179 -78 -437 -152 -615 -176 -19 -3 -57 -8 -85 -12 -80 -11 -362
-12 -465 -2 -79 8 -261 38 -370 62 -41 9 -240 76 -305 103 -573 235 -1043 701
-1280 1268 -65 155 -129 372 -150 505 -2 14 -6 39 -9 55 -16 100 -20 160 -21
340 0 174 9 337 20 354 1 4 6 29 9 56 12 108 76 336 132 475 281 690 852 1201
1564 1400 41 12 86 23 100 26 14 3 44 9 67 14 22 5 65 13 95 16 29 3 56 8 59
10 3 2 50 6 105 10 54 3 100 8 102 9 5 4 226 -2 312 -10z m-78 -399 c17 -33
19 -50 13 -120 -4 -44 -8 -83 -10 -86 -1 -3 -6 -41 -10 -84 -4 -43 -8 -86 -10
-95 -1 -9 -6 -47 -9 -86 -3 -38 -8 -86 -11 -105 -8 -52 -13 -103 -21 -182 -4
-39 -13 -82 -20 -97 -8 -14 -14 -32 -14 -38 0 -20 -13 -16 -74 24 -48 32 -56
42 -57 70 -1 18 -2 36 -3 41 -1 4 -6 43 -10 87 -4 44 -9 96 -11 115 -2 19 -7
64 -10 100 -6 66 -13 130 -20 185 -2 17 -7 68 -10 115 -4 46 -9 88 -11 92 -2
3 9 16 26 28 16 12 33 32 36 45 7 29 15 31 128 30 l89 -1 19 -38z m-413 -10
c7 -13 27 -29 44 -37 20 -9 32 -22 33 -34 1 -21 14 -153 19 -195 1 -14 6 -56
9 -95 4 -38 9 -90 12 -115 5 -49 10 -99 19 -200 4 -36 9 -77 11 -92 4 -25 1
-28 -22 -28 -49 0 -63 15 -57 62 3 24 10 46 14 49 13 8 -13 59 -31 60 -20 2
-35 1 -101 -6 -67 -7 -49 -40 -152 280 l-74 230 24 28 c13 16 23 39 23 52 0
21 7 25 78 40 42 9 82 18 87 20 29 10 53 3 64 -19z m729 -2 c68 -14 82 -20 82
-36 0 -23 26 -75 40 -80 6 -2 -41 -158 -110 -371 -106 -321 -123 -367 -141
-367 -11 0 -52 14 -91 30 -38 17 -81 30 -95 30 -22 0 -24 3 -19 33 2 17 7 64
11 102 3 39 8 79 10 90 2 11 7 52 11 90 3 39 8 79 10 90 2 11 7 54 10 95 4 41
8 82 9 90 1 8 6 47 10 86 l7 72 42 5 c30 4 48 14 66 37 17 21 31 29 45 26 11
-2 57 -12 103 -22z m-1085 -125 c7 -1 18 -2 26 -3 9 0 25 -35 42 -86 54 -165
129 -403 129 -409 0 -3 -21 -7 -46 -8 -26 -1 -76 -12 -113 -25 -36 -12 -71
-23 -77 -24 -7 -1 -64 90 -128 202 -117 203 -117 203 -102 233 9 16 16 43 16
59 0 26 6 32 43 48 23 10 65 27 92 39 l50 21 28 -23 c16 -13 34 -24 40 -24z
m1489 -16 c57 -25 62 -31 59 -65 -1 -10 5 -31 15 -47 l17 -29 -95 -163 c-216
-372 -250 -429 -254 -429 -3 0 -19 7 -36 16 -19 10 -44 14 -65 11 -18 -3 -33
-2 -33 3 0 6 -11 5 -26 0 -14 -6 -31 -10 -39 -10 -9 0 23 110 105 357 l119
356 37 13 c20 7 44 19 52 28 17 16 17 16 144 -41z m-1904 -135 c6 -6 31 -14
54 -17 l42 -6 93 -160 c51 -88 92 -162 93 -165 0 -3 -19 -25 -43 -51 -23 -25
-64 -71 -91 -102 l-48 -58 -20 23 c-11 13 -32 37 -46 54 -28 32 -130 148 -193
218 -32 35 -35 43 -28 70 5 17 7 42 4 56 -7 30 8 45 100 108 68 47 67 46 83
30z m2259 -82 c51 -36 53 -39 47 -76 -3 -20 -1 -46 5 -58 8 -16 6 -24 -12 -44
-18 -20 -183 -200 -222 -242 -5 -6 -46 -51 -90 -100 -44 -49 -91 -101 -105
-116 -14 -14 -52 -56 -84 -93 -33 -37 -62 -67 -65 -67 -3 0 -23 31 -44 69 -32
59 -36 73 -27 96 5 14 10 36 10 48 0 12 41 92 91 177 76 129 164 281 250 428
11 19 25 27 48 29 17 2 44 9 59 17 25 13 30 12 57 -8 17 -12 54 -39 82 -60z
m-2516 -179 c34 3 40 -1 100 -69 35 -40 66 -75 69 -78 3 -3 36 -41 75 -85 38
-44 74 -83 80 -87 14 -10 -53 -65 -89 -72 -16 -3 -49 -27 -75 -52 -54 -54 -28
-63 -228 83 -134 99 -141 106 -139 136 2 18 -3 44 -10 58 -12 24 -10 29 57
102 63 69 72 75 97 68 15 -5 43 -6 63 -4z m2770 -52 c19 -21 46 -52 61 -69 30
-33 34 -51 17 -62 -6 -3 -9 -24 -7 -47 4 -39 3 -40 -72 -94 -373 -270 -648
-466 -660 -473 -13 -7 -25 7 -58 62 l-43 71 23 25 c13 14 32 36 43 47 26 29
68 75 195 215 57 63 109 120 114 126 35 35 180 196 195 216 17 21 27 24 89 23
68 -2 71 -3 103 -40z m-2793 -393 c61 -46 112 -87 112 -91 0 -4 -15 -27 -32
-51 -18 -24 -38 -50 -45 -59 -8 -12 -9 -32 -2 -75 5 -32 8 -61 5 -63 -2 -2
-101 39 -219 93 -194 87 -214 99 -214 121 0 13 -8 39 -18 56 l-17 33 51 86
c48 82 52 86 80 82 17 -3 43 1 58 10 31 16 11 28 241 -142z m2915 126 c12 -6
36 -11 53 -10 18 1 38 -6 47 -16 25 -28 100 -172 89 -172 -12 0 -36 -57 -35
-80 1 -12 -32 -31 -115 -67 -64 -28 -247 -108 -407 -178 l-290 -128 -52 59
c-29 33 -52 63 -50 69 2 5 57 48 123 95 372 270 609 440 612 440 2 0 13 -5 25
-12z m-3236 -354 c43 -20 96 -44 118 -54 22 -10 84 -39 138 -64 108 -50 111
-55 66 -118 -21 -30 -24 -54 -9 -63 6 -4 7 -12 1 -22 -10 -19 3 -73 21 -85 23
-14 -7 -9 -220 37 -114 25 -231 51 -260 57 -45 10 -55 16 -66 42 -7 17 -20 37
-29 45 -23 18 -22 33 11 131 29 85 29 85 69 93 23 4 47 14 53 22 17 20 18 20
107 -21z m3429 1 c9 -8 27 -18 42 -21 15 -3 32 -7 38 -9 6 -2 24 -47 39 -100
l29 -97 -22 -17 c-13 -9 -26 -30 -30 -46 -8 -28 -13 -30 -93 -47 -46 -9 -94
-19 -106 -22 -13 -3 -58 -12 -100 -20 -43 -9 -89 -19 -103 -21 -69 -15 -124
-25 -131 -25 -5 0 -9 20 -9 45 0 25 -4 45 -9 45 -5 0 -65 -16 -132 -35 -68
-19 -127 -35 -131 -35 -4 0 -26 18 -49 39 l-40 40 43 20 c24 10 138 61 253
111 116 51 269 119 340 151 72 31 136 58 143 58 7 1 20 -6 28 -14z m-3435
-385 c101 -22 213 -47 249 -55 36 -8 81 -17 100 -21 53 -10 80 -32 80 -64 0
-21 16 -42 68 -91 37 -34 75 -73 85 -85 l17 -23 -421 2 -422 2 -4 25 c-4 29
-40 70 -61 70 -12 0 -14 14 -8 88 10 120 12 127 52 141 19 7 39 21 44 32 6 10
17 19 24 19 7 0 96 -18 197 -40z m3549 0 c6 -11 26 -26 44 -34 34 -14 34 -16
41 -93 4 -43 9 -88 10 -100 1 -13 -8 -31 -22 -43 -13 -11 -28 -31 -33 -44 l-9
-24 -360 0 c-199 0 -361 2 -361 5 0 3 9 21 21 39 11 19 36 71 54 116 29 69 39
84 62 90 25 7 142 33 198 44 11 2 83 17 160 33 170 36 181 36 195 11z m-2406
-301 c14 -11 26 -24 26 -28 0 -4 -60 -8 -132 -9 l-133 -2 70 30 c84 35 133 38
169 9z m-275 -35 c2 -2 -20 -4 -50 -3 -41 1 -48 3 -29 9 22 7 68 3 79 -6z
m359 -25 c82 -2 97 -6 84 -25 -6 -8 -149 -40 -347 -78 -11 -2 -87 -18 -170
-36 -82 -17 -161 -33 -175 -36 -14 -2 -54 -11 -90 -19 -36 -8 -81 -17 -100
-20 -19 -3 -73 -15 -120 -25 -47 -10 -98 -21 -115 -24 -16 -3 -106 -22 -200
-42 -93 -20 -177 -37 -185 -38 -8 -2 -26 8 -39 21 -13 13 -34 26 -47 29 -27 7
-32 25 -40 136 -6 83 -6 84 20 96 14 6 31 23 38 36 10 24 16 25 102 28 95 3
1240 1 1384 -3z m2340 1 c12 0 22 -6 22 -14 0 -7 14 -30 30 -51 17 -21 28 -45
26 -54 -3 -9 -7 -47 -11 -86 -8 -90 -13 -105 -33 -105 -9 0 -32 -14 -51 -30
-18 -16 -37 -28 -41 -25 -6 4 -517 117 -768 170 -35 8 -66 16 -68 18 -2 2 34
42 81 88 l86 84 107 5 c86 4 286 4 620 0z m-2250 -101 c-2 -6 -37 -25 -78 -43
-41 -18 -165 -72 -275 -120 -110 -48 -221 -97 -247 -108 -861 -381 -801 -357
-828 -340 -13 9 -38 18 -55 21 -28 6 -32 13 -63 103 l-32 97 25 25 c13 13 27
36 31 50 3 15 15 28 28 31 18 4 707 149 761 160 11 2 54 11 95 19 220 45 328
67 355 72 17 3 86 18 155 33 119 25 136 25 128 0z m-24 -96 c-4 -16 -7 -29 -8
-29 -1 -1 -145 -105 -321 -231 -176 -126 -442 -317 -591 -425 -229 -164 -274
-194 -290 -185 -10 6 -36 11 -58 12 -39 1 -40 3 -88 88 -47 83 -48 87 -33 110
9 14 17 39 20 57 2 18 5 33 7 35 2 2 109 49 238 105 129 56 255 111 280 122
25 12 63 29 85 38 22 10 60 27 85 38 102 47 666 292 673 292 4 0 4 -12 1 -27z
m1621 -78 c17 -3 37 -8 45 -10 8 -2 26 -6 40 -9 14 -2 45 -9 70 -15 25 -5 110
-24 189 -42 80 -17 149 -32 155 -34 6 -1 30 -6 54 -10 38 -7 45 -12 59 -47 8
-21 24 -43 34 -48 17 -10 17 -13 2 -63 -37 -126 -53 -157 -80 -157 -14 0 -37
-7 -53 -16 -27 -16 -30 -15 -256 86 -126 56 -267 120 -312 141 -46 22 -86 39
-88 39 -2 0 -52 23 -110 50 -58 28 -110 50 -115 50 -18 0 -8 23 36 84 l44 63
128 -29 c70 -15 142 -30 158 -33z m-1588 0 c8 -8 13 -19 11 -25 -3 -8 -155
-179 -280 -315 -20 -22 -47 -52 -60 -66 -21 -23 -173 -190 -227 -248 -12 -14
-55 -62 -95 -105 -39 -44 -82 -91 -96 -106 -14 -15 -57 -63 -97 -106 -127
-140 -122 -136 -139 -126 -10 6 -32 6 -53 1 -36 -9 -37 -8 -108 68 -60 64 -70
79 -62 95 6 11 11 38 12 61 2 45 -4 39 319 270 29 21 233 168 453 326 220 159
401 290 403 290 2 1 10 -6 19 -14z m79 -104 c-38 -63 -666 -1139 -684 -1171
-33 -60 -38 -64 -73 -66 -17 -1 -42 -7 -55 -14 -21 -12 -30 -8 -104 46 l-81
59 -3 65 c-2 60 -1 67 28 97 17 17 38 40 47 51 15 17 133 148 329 362 48 52
140 154 205 225 65 72 155 171 200 220 45 50 100 109 121 133 l39 43 17 -21
c10 -12 16 -25 14 -29z m1240 -70 c60 -26 129 -57 154 -68 78 -36 462 -209
528 -238 52 -23 62 -32 62 -52 0 -14 7 -40 16 -59 l16 -34 -49 -86 -50 -86
-44 -3 c-24 -1 -51 -5 -59 -8 -10 -4 -126 76 -329 226 l-314 232 -23 95 c-13
52 -25 103 -28 113 -2 9 -1 17 4 17 4 0 57 -22 116 -49z m-1198 -40 c10 -42 3
-65 -189 -650 -110 -333 -204 -616 -209 -628 -6 -15 -18 -23 -33 -23 -14 0
-36 -9 -50 -20 -14 -11 -28 -20 -31 -20 -3 0 -46 19 -96 41 -85 40 -90 43 -90
73 0 17 -7 42 -16 54 -15 21 -13 26 28 97 24 40 182 312 353 604 170 292 312
527 316 523 3 -4 11 -27 17 -51z m1600 -536 c136 -100 137 -101 134 -137 -2
-20 2 -46 8 -57 9 -18 5 -28 -33 -69 -24 -26 -54 -59 -66 -73 -20 -24 -28 -26
-88 -24 -45 2 -70 7 -77 17 -6 9 -43 51 -82 94 -39 44 -140 156 -223 249
l-151 170 27 12 c50 20 77 59 79 111 1 26 2 48 3 49 0 1 76 -53 167 -120 91
-67 227 -167 302 -222z m-1627 158 c6 -20 25 -59 41 -86 29 -49 31 -76 13
-187 -3 -14 -7 -56 -10 -95 -3 -38 -7 -77 -10 -85 -2 -8 -7 -49 -10 -90 -4
-41 -8 -86 -10 -100 -3 -14 -7 -54 -10 -90 -3 -35 -7 -76 -9 -90 -3 -14 -7
-52 -11 -85 -9 -94 -15 -114 -42 -141 -27 -27 -31 -27 -143 -3 -63 13 -93 26
-85 38 2 5 -6 25 -20 45 -14 20 -25 41 -25 47 0 6 68 216 152 467 84 251 153
460 154 465 1 4 2 12 3 17 2 19 9 10 22 -27z m1229 -253 c281 -316 262 -292
254 -320 -4 -14 -7 -41 -6 -61 1 -34 -3 -39 -78 -94 -77 -55 -82 -57 -111 -45
-17 7 -43 14 -57 15 -24 1 -39 21 -130 180 -187 326 -173 292 -177 402 -1 53
-1 103 2 110 3 8 22 25 42 39 l36 24 30 -32 c17 -18 104 -116 195 -218z
m-1117 -40 c5 -42 15 -66 47 -110 63 -86 87 -137 73 -159 -10 -15 -6 -24 23
-55 28 -30 41 -36 73 -36 22 0 42 -4 45 -8 3 -5 8 -44 12 -87 3 -44 7 -86 9
-95 1 -8 6 -52 10 -97 6 -76 5 -82 -14 -88 -11 -3 -29 -21 -41 -40 l-21 -34
-100 1 c-94 1 -101 3 -109 23 -11 29 -57 65 -82 65 -19 0 -20 5 -13 83 4 45 9
89 10 97 2 8 6 49 10 90 3 41 8 82 10 90 2 8 7 48 10 88 4 41 8 81 10 90 1 9
6 50 10 89 4 40 8 81 10 90 2 10 4 29 4 42 1 39 8 20 14 -39z m787 -9 c0 -5
60 -114 134 -242 126 -219 133 -235 120 -256 -8 -12 -16 -36 -17 -53 -4 -37
-18 -47 -119 -89 l-78 -31 -20 20 c-11 11 -27 21 -35 21 -8 1 -20 2 -27 3 -12
1 -57 127 -115 319 l-26 88 25 27 c44 47 63 84 68 136 5 48 7 52 40 62 35 12
50 10 50 -5z m-159 -442 l61 -190 -21 -23 c-12 -13 -25 -36 -30 -52 -7 -27
-13 -30 -109 -49 l-101 -21 -21 28 c-11 15 -32 31 -45 34 -20 5 -25 13 -26 38
0 17 -2 47 -4 66 -9 78 -15 128 -21 198 l-6 72 28 1 c61 1 148 30 194 64 19
14 35 25 37 25 1 0 30 -86 64 -191z"/>
</g>
</svg>
