<?xml version="1.0" standalone="no"?>
<!DOCTYPE svg PUBLIC "-//W3C//DTD SVG 20010904//EN"
 "http://www.w3.org/TR/2001/REC-SVG-20010904/DTD/svg10.dtd">
<svg version="1.0" xmlns="http://www.w3.org/2000/svg"
 width="333.000000pt" height="333.000000pt" viewBox="0 0 333.000000 333.000000"
 preserveAspectRatio="xMidYMid meet">
<metadata>
Created by potrace 1.11, written by Peter Selinger 2001-2013
</metadata>
<g transform="translate(0.000000,333.000000) scale(0.100000,-0.100000)"
fill="#000000" stroke="none">
<path d="M1050 3315 c-139 -27 -258 -91 -361 -194 -135 -135 -201 -299 -201
-496 1 -166 47 -304 156 -463 l53 -79 5 -139 c5 -115 10 -152 31 -212 36 -103
81 -173 164 -256 l72 -72 -2 -59 -2 -60 -120 -27 c-156 -36 -164 -37 -205 -44
-68 -12 -202 -55 -260 -84 -49 -25 -146 -95 -185 -134 -28 -28 -96 -127 -119
-173 -14 -28 -36 -87 -48 -130 -20 -72 -21 -102 -22 -378 l-1 -300 1338 -3
1337 -2 0 105 0 105 28 0 c15 1 119 1 231 1 113 0 224 4 247 10 77 20 137 101
136 185 -1 29 -46 143 -159 405 l-157 364 -2 376 -1 375 53 -1 54 -2 0 56 0
56 -317 -1 c-175 -1 -321 -2 -324 -3 -5 -1 -5 -44 0 -97 1 -7 20 -11 51 -9
l50 2 0 -372 0 -372 -41 -94 c-22 -52 -42 -95 -43 -96 -1 -2 -11 5 -22 15
-115 104 -209 148 -414 194 -74 16 -142 31 -150 33 -8 2 -52 12 -97 21 -91 20
-84 11 -85 102 -1 33 7 45 74 112 79 80 126 153 158 244 26 77 32 123 35 248
l1 106 62 95 c109 164 152 298 148 462 -2 107 -29 176 -96 249 -52 57 -95 84
-168 106 -50 16 -57 21 -63 49 -22 105 -122 221 -227 262 -53 21 -74 23 -292
24 -155 2 -257 -2 -300 -10z m547 -116 c96 -36 162 -126 171 -234 2 -33 5 -61
6 -61 0 -1 26 -4 57 -7 104 -9 185 -62 231 -151 27 -51 33 -167 13 -254 -15
-63 -73 -202 -84 -202 -4 0 -7 24 -6 53 1 28 0 58 -3 65 -6 18 -102 16 -102
-2 0 -12 -6 -12 -39 0 -56 19 -935 19 -992 0 -33 -12 -39 -12 -39 0 0 10 -15
14 -55 14 l-54 0 -3 -67 -3 -68 -24 45 c-131 246 -87 540 110 726 69 65 134
103 232 135 76 25 90 26 306 26 199 0 233 -2 278 -18z m218 -903 c46 -20 58
-47 61 -144 3 -78 1 -87 -22 -118 -14 -18 -53 -47 -87 -64 -103 -51 -220 -37
-307 37 -40 34 -47 37 -116 38 -68 2 -75 0 -104 -27 -49 -44 -109 -70 -176
-76 -80 -6 -148 17 -209 70 l-47 41 4 98 c3 102 15 130 63 150 11 4 219 8 463
8 360 1 449 -2 477 -13z m-405 -392 c132 -90 288 -100 419 -28 l43 24 -5 -48
c-16 -149 -128 -305 -275 -384 -320 -173 -717 26 -777 389 l-6 41 58 -28 c137
-66 284 -54 407 34 56 40 77 40 136 0z m1480 -44 c1 -41 1 -212 1 -379 0 -281
1 -308 19 -349 11 -25 20 -46 20 -48 0 -2 -63 -3 -140 -2 -77 0 -140 5 -140
10 0 5 7 25 15 45 12 29 15 100 15 417 l0 381 105 0 105 0 0 -75z m-1710 -545
c121 -32 267 -24 389 19 l43 16 -4 -58 c-8 -117 -101 -197 -238 -207 -184 -13
-305 92 -291 253 1 9 6 10 19 3 9 -5 47 -17 82 -26z m-14 -487 l177 -353 176
352 c152 305 178 352 195 347 10 -3 24 -7 30 -8 6 -2 27 -6 47 -10 l36 -8 20
-91 c11 -51 19 -93 18 -95 -2 -1 -51 -14 -111 -29 -60 -14 -112 -28 -116 -32
-3 -3 20 -46 52 -96 l59 -90 -27 -25 c-15 -14 -63 -57 -107 -95 -44 -39 -89
-79 -101 -90 -11 -11 -49 -45 -84 -75 -34 -30 -68 -60 -75 -67 -9 -9 -19 -5
-42 15 -16 15 -62 56 -103 92 -41 36 -90 80 -109 98 -20 18 -64 56 -98 85 -34
28 -62 56 -62 61 -1 5 26 49 58 98 l60 88 -42 10 c-23 6 -59 16 -79 21 -123
30 -120 29 -114 53 3 13 8 38 11 57 18 107 15 102 85 121 36 9 66 17 67 17 2
1 82 -158 179 -351z m-430 274 c-3 -9 -14 -62 -26 -116 -23 -113 -25 -109 60
-128 30 -6 58 -13 63 -14 4 -1 14 -2 22 -3 23 -2 18 -17 -27 -83 l-41 -61 34
-30 c19 -16 52 -46 74 -66 22 -20 94 -83 160 -141 65 -58 142 -126 170 -152
27 -26 53 -48 58 -48 4 0 7 -31 7 -70 0 -70 0 -70 -27 -70 -16 -1 -160 -2
-321 -3 -286 -2 -292 -2 -293 18 0 11 -1 59 0 108 0 69 -3 87 -14 88 -19 1
-72 1 -85 0 -6 -1 -10 -43 -10 -106 l0 -105 -213 0 -213 0 2 243 c1 200 4 252
19 302 44 148 133 267 260 347 49 31 167 74 224 83 24 3 51 9 62 14 38 14 60
11 55 -7z m1362 -16 c122 -29 209 -75 286 -149 l55 -52 -90 -205 c-49 -113
-92 -224 -96 -247 -12 -86 50 -179 134 -202 21 -6 70 -11 110 -11 79 0 82 -3
75 -67 l-4 -33 -212 0 -212 0 1 105 c1 103 1 105 -22 106 -13 1 -33 1 -46 2
-12 1 -27 -2 -32 -5 -6 -3 -9 -50 -9 -107 l2 -101 -107 0 c-341 -2 -524 0
-528 4 -3 3 -6 32 -6 65 l-1 60 70 63 c77 70 224 202 328 293 86 75 96 85 96
93 0 4 -18 34 -40 67 -22 33 -36 62 -32 66 4 3 30 12 57 18 28 7 66 16 86 22
l36 9 -23 108 c-13 59 -24 113 -24 120 0 14 -5 14 148 -22z m-776 -111 c37 -2
84 1 105 5 21 5 39 7 41 6 2 -2 -26 -62 -61 -132 l-65 -129 -66 133 c-60 119
-64 133 -44 126 12 -4 53 -8 90 -9z m1657 -11 c19 -21 231 -535 231 -559 0
-15 -10 -36 -25 -49 l-25 -23 -372 2 c-205 0 -381 5 -390 9 -9 4 -22 23 -28
42 -11 33 -6 49 105 309 97 226 121 274 139 277 47 7 358 0 365 -8z"/>
<path d="M1561 330 c-4 -3 -7 -28 -7 -57 l0 -52 188 -1 c143 0 188 3 189 13 3
34 0 89 -5 94 -7 7 -355 10 -365 3z"/>
<path d="M2555 2728 c-86 -30 -151 -128 -143 -215 17 -185 228 -270 362 -145
85 80 86 232 3 310 -56 53 -153 75 -222 50z m148 -138 c87 -97 -48 -228 -145
-141 -28 25 -33 36 -33 74 0 100 111 141 178 67z"/>
<path d="M3090 2402 c-148 -72 -98 -303 67 -305 84 -1 142 46 161 130 15 65
-22 143 -83 176 -31 16 -109 16 -145 -1z m104 -108 c33 -32 6 -96 -37 -89 -46
8 -61 53 -30 87 20 22 46 23 67 2z"/>
</g>
</svg>
